<svg version="1.1" class="cylinder" fill="white" xmlns="http://www.w3.org/2000/svg" xmlns:xlink="http://www.w3.org/1999/xlink" x="0px" height="200px" y="0px">
	<g>
		<path fill="black" d="M163.839,23.893c-1.884,0-3.413,1.529-3.413,3.413v143.36c0,9.687-25.233,20.48-61.44,20.48s-61.44-10.793-61.44-20.48
			V27.307c0-1.884-1.529-3.413-3.413-3.413s-3.413,1.529-3.413,3.413v143.36c0,13.239,23.926,27.307,68.267,27.307
			c44.341,0,68.267-14.068,68.267-27.307V27.307C167.252,25.423,165.723,23.893,163.839,23.893z"/>
	</g>
	<g>
		<path d="M163.839,23.893c-1.884,0-3.413,1.529-3.413,3.413v143.36c0,9.687-25.233,20.48-61.44,20.48s-61.44-10.793-61.44-20.48
			V27.307c0-1.884-1.529-3.413-3.413-3.413s-3.413,,3.413v143.36c0,13.239,23.926,27.307,68.267,27.307
			c44.341,0,68.267-14.068,68.267-27.307V27.307C167.252,25.423,165.723,23.893,163.839,23.893z"/>
	</g>
	<g>
		<path d="M98.986,0C54.645,0,30.719,14.07,30.719,27.307s23.926,27.307,68.267,27.307c44.341,0,68.267-14.07,68.267-27.307
			S143.327,0,98.986,0z M98.986,,0-61.44-10.793-61.44-20.48c0-9.687,25.233-20.48,61.44-20.48
			s61.44,10.793,61.44,20.48C160.426,36.994,135.193,47.787,98.986,47.787z"/>
	</g>
	<g>
		<path fill="black" d="M98.986,0C54.645,0,30.719,14.07,30.719,27.307s23.926,27.307,68.267,27.307c44.341,0,68.267-14.07,68.267-27.307
			S143.327,0,98.986,0z M98.986,47.787c-36.207,0-61.44-10.793-61.44-20.48c0-9.687,25.233-20.48,61.44-20.48
			s61.44,10.793,61.44,20.48C160.426,36.994,135.193,47.787,98.986,47.787z"/>
	</g>
</svg>

